<svg xmlns="http://www.w3.org/2000/svg" viewBox="0 0 265.01 265.01"><defs><style>.cls-1{fill:#fff;}</style></defs><g id="Layer_2" data-name="Layer 2"><g id="Layer_1-2" data-name="Layer 1"><path class="cls-1" d="M132.51,265C59.44,265,0,205.57,0,132.51S59.44,0,132.51,0,265,59.44,265,132.51,205.57,265,132.51,265Zm0-225.47a93,93,0,1,0,93,93A93.08,93.08,0,0,0,132.51,39.54Z"/><path class="cls-1" d="M56.28,117v2.38H67.53v6.36H56.28V128H68.45v6.59H48.59v-24.2H68.45V117Z"/><path class="cls-1" d="M94.73,134.61h-9l-1.33-2.21L81.81,128c-.88,1.43-1.87,3-2.82,4.38l-1.46,2.21H69l8.91-12.4-8-11.8h8.9l1.33,2.11c.68,1,1.32,2.1,1.94,3.12.64-1,1.25-2.07,1.93-3.12l1.33-2.11h8.29L86.06,121.7Z"/><path class="cls-1" d="M111.12,131.45h-8.71l-1,3.16H93.78l8.19-24.2h9.39l8.66,24.2h-8Zm-1.7-5.61-1.67-5.57c-.34-1.19-.71-2.42-1-3.61l-1,3.61-1.66,5.57Z"/><path class="cls-1" d="M149.43,110.41v24.2H142v-6.86c0-3.3,0-6.19.17-9.25-.21,1-.45,2.07-.75,3.3l-3.06,12.81h-6.26l-3.12-12.81c-.28-1.16-.52-2.14-.72-3.1.14,3,.17,5.82.17,9v6.86h-7.48v-24.2h11.83l1.91,9.18c.2,1,.37,1.9.57,2.89.17-1,.34-1.94.55-2.89l1.83-9.18Z"/><path class="cls-1" d="M173.44,119c0,5.24-3.5,8.64-9.49,8.64h-4.11v6.93h-7.68v-24.2H164C169.94,110.41,173.44,113.81,173.44,119Zm-7.89,0c0-1.53-1-2.31-2.61-2.31h-3.1v4.63h3.1C164.57,121.36,165.55,120.57,165.55,119Z"/><path class="cls-1" d="M193.47,128v6.59H175.38v-24.2h7.68V128Z"/><path class="cls-1" d="M203,117v2.38h11.25v6.36H203V128h12.17v6.59H195.34v-24.2h19.85V117Z"/><path class="cls-1" d="M101.5,168.82v6.59H83.41v-24.2h7.68v17.61Z"/><path class="cls-1" d="M101.8,163.31c0-7.75,5.27-12.65,12.82-12.65s12.82,4.9,12.82,12.65S122.17,176,114.62,176,101.8,171.1,101.8,163.31Zm17.68,0c0-4.32-2-6.12-4.86-6.12s-4.86,1.8-4.86,6.12,2,6.16,4.86,6.16S119.48,167.66,119.48,163.31Z"/><path class="cls-1" d="M153.28,161.31v14.1h-5l-.54-2.58c-2,2.62-5,3.16-7.41,3.16-7.48,0-11.63-5.54-11.63-12.75s4.66-12.58,12.61-12.58c6.57,0,11.12,3.54,11.9,8.91h-7.85a3.81,3.81,0,0,0-3.91-2.38c-2.58,0-4.79,1.5-4.79,6.19,0,4.15,1.73,6.15,4.82,6.15,2,0,3.64-.78,4.32-2.89h-4.28v-5.33Z"/><path class="cls-1" d="M154.94,163.31c0-7.75,5.27-12.65,12.82-12.65s12.82,4.9,12.82,12.65S175.31,176,167.76,176,154.94,171.1,154.94,163.31Zm17.68,0c0-4.32-2-6.12-4.86-6.12s-4.86,1.8-4.86,6.12,2,6.16,4.86,6.16S172.62,167.66,172.62,163.31Z"/></g></g></svg>